<svg id="Capa_1" enable-background="new 0 0 508 508" height="512" viewBox="0 0 508 508" width="512" xmlns="http://www.w3.org/2000/svg"><g id="XMLID_175_"><g id="XMLID_434_"><path id="XMLID_759_" d="m256.333 429.333c-96.679 0-175.333-78.654-175.333-175.333s78.654-175.333 175.333-175.333 175.334 78.654 175.334 175.333-78.654 175.333-175.334 175.333zm0-320.666c-80.137 0-145.333 65.196-145.333 145.333s65.196 145.333 145.333 145.333 145.333-65.196 145.333-145.333-65.196-145.333-145.333-145.333z"/></g><g id="XMLID_177_"><path id="XMLID_758_" d="m74.395 433.605c-47.975-47.974-74.395-111.759-74.395-179.605s26.42-131.631 74.395-179.605l21.213 21.213c-87.337 87.338-87.337 229.446 0 316.784z"/></g><g id="XMLID_176_"><path id="XMLID_757_" d="m433.605 433.605-21.213-21.213c87.337-87.338 87.337-229.446 0-316.784l21.213-21.213c47.975 47.974 74.395 111.759 74.395 179.605s-26.42 131.631-74.395 179.605z"/></g><g id="XMLID_178_"><path id="XMLID_756_" d="m241 161.333h30v122.667h-30z"/></g><g id="XMLID_179_"><path id="XMLID_755_" d="m241 314.667h30v32h-30z"/></g></g></svg>