<svg id="Layer_1" enable-background="new 0 0 510 510" height="512" viewBox="0 0 510 510" width="512" xmlns="http://www.w3.org/2000/svg"><g><path d="m435 75v-60h-30v60h-285v-60h-30v60h-90v420h510v-420zm-345 30v30h30v-30h285v30h30v-30h45v60h-450v-60zm-60 360v-270h450v270z"/><path d="m75 225h45v30h-45z"/><path d="m75 285h45v30h-45z"/><path d="m75 345h45v30h-45z"/><path d="m75 405h45v30h-45z"/><path d="m180 225h45v30h-45z"/><path d="m180 285h45v30h-45z"/><path d="m180 345h45v30h-45z"/><path d="m180 405h45v30h-45z"/><path d="m285 225h45v30h-45z"/><path d="m285 285h45v30h-45z"/><path d="m285 345h45v30h-45z"/><path d="m390 225h45v30h-45z"/><path d="m390 285h45v30h-45z"/></g></svg>